<svg enable-background="new 0 0 24 24" height="512" viewBox="0 0 24 24" width="512" xmlns="http://www.w3.org/2000/svg"><path style="fill:#096CFF;" d="m11.987 24c-.02 0-.039-.001-.059-.004l-8.493-1c-.252-.029-.441-.242-.441-.496v-6c0-.276.224-.5.5-.5s.5.224.5.5v5.556l7.493.882v-12.348c-.029-.161.022-.331.153-.45.145-.133.36-.173.544-.092.181.08.303.254.303.452v13c0 .143-.062.278-.168.374-.091.081-.21.126-.332.126z"/><path style="fill:#096CFF;" d="m12.007 24c-.122 0-.24-.045-.332-.126-.106-.096-.168-.231-.168-.374v-12.75c0-.276.224-.5.5-.5s.5.224.5.5v12.188l7.492-.882v-5.556c0-.276.224-.5.5-.5s.5.224.5.5v6c0 .254-.189.467-.441.496l-8.492 1c-.02.003-.04.004-.059.004z"/><path style="fill:#096CFF;" d="m22.5 17h-7.003c-.178 0-.343-.095-.432-.248l-3.494-6c-.096-.164-.091-.367.014-.526.104-.158.288-.252.477-.222l8.496 1c.182.021.338.141.405.311l2.001 5c.062.154.043.328-.05.466s-.248.219-.414.219zm-6.716-1h5.978l-1.616-4.038-7.207-.849z"/><path style="fill:#096CFF;" d="m8.503 17h-7.003c-.166 0-.321-.082-.414-.22s-.111-.312-.05-.466l2.001-5c.067-.17.224-.29.405-.311l8.496-1c.19-.027.373.064.477.222.104.159.109.362.014.526l-3.494 6c-.089.154-.254.249-.432.249zm-6.265-1h5.978l2.846-4.887-7.207.849z"/><path style="fill:#096CFF;" d="m12 8c-.276 0-.5-.224-.5-.5v-7c0-.276.224-.5.5-.5s.5.224.5.5v7c0 .276-.224.5-.5.5z"/><path style="fill:#096CFF;" d="m12 8c-.116 0-.231-.04-.325-.12l-3.5-3c-.21-.18-.235-.496-.055-.705.182-.209.497-.234.705-.055l3.175 2.722 3.175-2.722c.208-.177.524-.154.705.055.18.209.155.525-.055.705l-3.5 3c-.094.08-.209.12-.325.12z"/></svg>